PathFileType	4	(X/Y/Z)	HSS_walk1.trc
DataRate	CameraRate	NumFrames	NumMarkers	Units	OrigDataRate	OrigDataStartFrame	OrigNumFrames
120.0	120.0	4	44	mm	120.0	127	1008
Frame#	Time		R.Shoulder		Offset		L.Shoulder		R.Elbow		R.Wrist.Radial		R.Wrist		R.Hand		L.Elbow		L.Wrist.Radial		L.Wrist		L.Hand		R.Hip		V.Sacral		L.PSIS		L.Hip		R.Thigh.Upper		R.Thigh.Front		R.Thigh.Rear		X.Shell.Lower.Thigh.Right		R.Knee.Lateral		R.Shank.Upper		R.Shank.Front		R.Shank.Rear		X.Shell.Lower.Shank.Right		R.Ankle.Lateral		R.Heel		R.Toe		L.Thigh.Upper		L.Thigh.Front		L.Thigh.Rear		X.Shell.Lower.Thigh.Left		L.Knee.Lateral		L.Shank.Upper		L.Shank.Front		L.Shank.Rear		X.Shell.Lower.Shank.Left		L.Ankle.Lateral		L.Heel		L.Toe		R.Troc		L.Troc		R.PSIS		L.ASIS		R.ASIS
			X1	Y1	Z1	X2	Y2	Z2	X3	Y3	Z3	X4	Y4	Z4	X5	Y5	Z5	X6	Y6	Z6	X7	Y7	Z7	X8	Y8	Z8	X9	Y9	Z9	X10	Y10	Z10	X11	Y11	Z11	X12	Y12	Z12	X13	Y13	Z13	X14	Y14	Z14	X15	Y15	Z15	X16	Y16	Z16	X17	Y17	Z17	X18	Y18	Z18	X19	Y19	Z19	X20	Y20	Z20	X21	Y21	Z21	X22	Y22	Z22	X23	Y23	Z23	X24	Y24	Z24	X25	Y25	Z25	X26	Y26	Z26	X27	Y27	Z27	X28	Y28	Z28	X29	Y29	Z29	X30	Y30	Z30	X31	Y31	Z31	X32	Y32	Z32	X33	Y33	Z33	X34	Y34	Z34	X35	Y35	Z35	X36	Y36	Z36	X37	Y37	Z37	X38	Y38	Z38	X39	Y39	Z39	X40	Y40	Z40	X41	Y41	Z41	X42	Y42	Z42	X43	Y43	Z43	X44	Y44	Z44

127	1.05000	-1612.94482	1463.21204	-19.44629	-1747.15698	1397.03833	-318.42175	-1604.24524	1478.90308	-395.21756	-1652.16565	1094.99963	23.50685	-1508.85437	884.38147	-24.09451	-1536.29211	871.20490	43.85623	-1488.66028	800.72797	24.81785	-1630.12305	1113.32166	-449.83939	-1504.42822	903.58075	-386.99298	-1509.87854	902.69659	-458.15762	-1468.35962	829.89380	-430.57880	-1594.80847	1032.63416	-57.67307	-1708.53918	1019.72137	-208.93256	-1707.67505	1025.91296	-250.27676	-1588.88538	1031.27332	-356.25766	-1570.40051	689.63641	-21.06919	-1540.56067	650.19806	-37.83421	-1596.64478	653.36676	-11.72741	-1572.40820	618.63971	-30.14891	-1645.86438	516.18518	-40.46922	-1670.84119	371.82968	11.41306	-1646.70190	326.24655	-12.11755	-1705.06567	337.05466	0.87950	-1685.03662	295.48495	-8.18763	-1708.73877	71.37048	-54.44841	-1753.23706	33.27726	-101.90485	-1554.28296	32.01039	-53.01402	-1556.21118	688.45807	-379.13919	-1541.32983	637.93970	-355.56882	-1588.16846	655.12451	-394.22623	-1566.12329	618.35266	-380.70831	-1644.97668	507.81000	-363.90213	-1687.66687	309.62173	-408.82590	-1660.77026	284.85486	-391.29971	-1720.07385	271.98364	-395.61304	-1698.06384	240.20413	-397.43192	-1689.49829	73.23164	-351.45007	-1744.75586	35.00398	-305.51297	-1544.79797	31.47290	-342.78641	-1583.89197	877.16620	-21.62159	-1584.49622	888.22473	-389.99988	-1709.86047	1023.23456	-164.21915	-1520.91321	993.95337	-315.05884	-1531.09680	995.04041	-87.81145
128	1.05833	-1612.84497	1463.24719	-19.45234	-1747.12427	1397.01392	-318.39072	-1604.17078	1478.85608	-395.28397	-1652.29822	1095.18335	24.07106	-1508.80786	884.37006	-24.06245	-1536.19043	871.24969	43.91137	-1488.50879	800.74969	24.84584	-1630.16479	1113.27856	-449.74194	-1504.07092	903.63239	-386.92368	-1509.89014	902.64807	-458.06653	-1468.31555	829.84229	-430.46646	-1594.75269	1032.58948	-57.68721	-1708.47156	1019.73822	-208.91733	-1707.65295	1025.91687	-250.27078	-1588.91577	1031.23364	-356.30804	-1570.35413	689.62689	-21.06664	-1540.51196	650.19385	-37.84734	-1596.59729	653.36713	-11.75977	-1572.39624	618.64087	-30.14784	-1645.84729	516.18134	-40.41731	-1670.81702	371.80966	11.38624	-1646.71338	326.24088	-12.05475	-1705.06860	337.03680	0.89216	-1685.04419	295.48279	-8.15680	-1708.74146	71.36957	-54.44181	-1753.22192	33.27133	-101.91819	-1554.27856	31.98200	-53.04301	-1556.18884	688.47235	-379.12216	-1541.32275	637.90192	-355.57059	-1588.14026	655.10944	-394.20206	-1566.10193	618.35663	-380.74362	-1644.94202	507.80176	-363.92087	-1687.65527	309.63980	-408.82568	-1660.73987	284.81070	-391.22205	-1720.02869	271.96597	-395.63574	-1698.00793	240.17982	-397.41583	-1689.52148	73.26652	-351.48770	-1744.76282	35.00441	-305.51016	-1544.78711	31.46874	-342.81775	-1583.85657	877.14880	-21.61899	-1584.45129	888.21301	-389.96588	-1709.80994	1023.21796	-164.21960	-1520.84277	993.91675	-315.06760	-1530.86633	995.05200	-87.79507
129	1.06667	-1612.73706	1463.26990	-19.49416	-1747.09412	1397.00647	-318.39249	-1604.12671	1478.81238	-395.27451	-1651.87781	1095.11548	23.52307	-1508.72534	884.40094	-24.04936	-1536.08667	871.28833	43.97510	-1488.35669	800.79785	24.89344	-1630.17737	1113.21533	-449.67563	-1503.97534	903.49792	-386.85132	-1509.95337	902.57062	-458.00580	-1468.31470	829.79999	-430.38983	-1594.70044	1032.52039	-57.68723	-1708.45593	1019.73083	-208.92511	-1707.63501	1025.91003	-250.24977	-1588.76660	1031.23157	-356.21310	-1570.30896	689.63519	-21.04844	-1540.49487	650.16858	-37.76578	-1596.58289	653.35486	-11.75157	-1572.35132	618.62292	-30.14174	-1645.78979	516.14960	-40.49225	-1670.80286	371.78281	11.38492	-1646.72192	326.25153	-12.04692	-1705.05811	337.02844	0.90563	-1685.02881	295.45499	-8.21699	-1708.73462	71.37695	-54.40051	-1753.20667	33.24107	-101.93999	-1554.27112	31.99251	-53.03442	-1556.15979	688.46448	-379.09937	-1541.27478	637.93060	-355.61697	-1588.08240	655.10400	-394.19003	-1566.01489	618.34662	-380.65787	-1644.87378	507.77234	-363.92142	-1687.59485	309.63168	-408.84009	-1660.69983	284.80826	-391.23218	-1720.00684	271.97174	-395.63815	-1697.97412	240.19084	-397.41620	-1689.49121	73.22848	-351.46347	-1744.74719	34.98543	-305.51227	-1544.79333	31.45006	-342.82703	-1583.84119	877.14087	-21.58077	-1584.41956	888.24512	-389.97040	-1709.76611	1023.22473	-164.21391	-1520.79309	993.91010	-315.04889	-1530.99768	995.04193	-87.76309
130	1.07500	-1612.66272	1463.32300	-19.50851	-1747.05762	1396.99744	-318.41858	-1604.08105	1478.77600	-395.33987	-1651.82349	1095.15686	23.58236	-1508.67615	884.40405	-23.94773	-1535.96387	871.32080	44.08011	-1488.24377	800.80652	24.96309	-1630.25879	1113.15198	-449.60309	-1503.03455	903.56848	-386.77484	-1509.98926	902.50391	-457.95901	-1468.39526	829.78735	-430.34479	-1594.59045	1032.55310	-57.64011	-1708.42566	1019.73340	-208.90079	-1707.61145	1025.89307	-250.23811	-1588.67786	1031.23975	-356.22833	-1570.26746	689.62842	-21.02673	-1540.44043	650.15808	-37.83301	-1596.55457	653.34814	-11.71560	-1572.31921	618.61090	-30.13098	-1645.79858	516.15607	-40.38731	-1670.78015	371.78278	11.37899	-1646.70337	326.23999	-12.07419	-1705.04504	337.01910	0.86763	-1685.02661	295.45474	-8.21600	-1708.74585	71.37005	-54.44466	-1753.23462	33.28012	-101.90376	-1554.27795	31.99999	-53.03986	-1556.11157	688.44348	-379.05542	-1541.19604	637.91962	-355.55209	-1588.04138	655.09998	-394.18140	-1565.96802	618.33276	-380.68414	-1644.80725	507.74686	-363.89703	-1687.57446	309.61191	-408.80267	-1660.67554	284.83197	-391.26340	-1719.97852	271.98041	-395.63348	-1697.95276	240.18475	-397.40643	-1689.49976	73.25384	-351.49661	-1744.76086	34.99989	-305.51401	-1544.78467	31.46622	-342.82965	-1583.78125	877.13110	-21.59795	-1584.38586	888.23108	-389.93732	-1709.75745	1023.22223	-164.20766	-1520.80566	993.94171	-315.04196	-1530.82483	995.02173	-87.78191
